<svg width="200" height="200" viewBox="0 0 200 200" fill="none" xmlns="http://www.w3.org/2000/svg">
<path fill-rule="evenodd" clip-rule="evenodd" d="M58.7727 0.6C69.4364 0.109091 72.8364 0 100 0C127.164 0 130.564 0.118182 141.218 0.6C151.873 1.08182 159.145 2.78182 165.509 5.24545C172.173 7.76364 178.218 11.7 183.218 16.7909C188.309 21.7818 192.236 27.8182 194.745 34.4909C197.218 40.8545 198.909 48.1273 199.4 58.7636C199.891 69.4455 200 72.8455 200 100C200 127.164 199.882 130.564 199.4 141.227C198.918 151.864 197.218 159.136 194.745 165.5C192.236 172.174 188.303 178.22 183.218 183.218C178.218 188.309 172.173 192.236 165.509 194.745C159.145 197.218 151.873 198.909 141.236 199.4C130.564 199.891 127.164 200 100 200C72.8364 200 69.4364 199.882 58.7727 199.4C48.1364 198.918 40.8636 197.218 34.5 194.745C27.8266 192.236 21.7802 188.302 16.7818 183.218C11.6944 178.224 7.75741 172.181 5.24545 165.509C2.78182 159.145 1.09091 151.873 0.6 141.236C0.109091 130.555 0 127.155 0 100C0 72.8364 0.118182 69.4364 0.6 58.7818C1.08182 48.1273 2.78182 40.8545 5.24545 34.4909C7.76112 27.8189 11.7011 21.7756 16.7909 16.7818C21.7822 11.6955 27.8225 7.75858 34.4909 5.24545C40.8545 2.78182 48.1273 1.09091 58.7636 0.6H58.7727ZM140.409 18.6C129.864 18.1182 126.7 18.0182 100 18.0182C73.3 18.0182 70.1364 18.1182 59.5909 18.6C49.8364 19.0455 44.5455 20.6727 41.0182 22.0455C36.3545 23.8636 33.0182 26.0182 29.5182 29.5182C26.2004 32.7459 23.6471 36.6753 22.0455 41.0182C20.6727 44.5455 19.0455 49.8364 18.6 59.5909C18.1182 70.1364 18.0182 73.3 18.0182 100C18.0182 126.7 18.1182 129.864 18.6 140.409C19.0455 150.164 20.6727 155.455 22.0455 158.982C23.6455 163.318 26.2 167.255 29.5182 170.482C32.7455 173.8 36.6818 176.355 41.0182 177.955C44.5455 179.327 49.8364 180.955 59.5909 181.4C70.1364 181.882 73.2909 181.982 100 181.982C126.709 181.982 129.864 181.882 140.409 181.4C150.164 180.955 155.455 179.327 158.982 177.955C163.645 176.136 166.982 173.982 170.482 170.482C173.8 167.255 176.355 163.318 177.955 158.982C179.327 155.455 180.955 150.164 181.4 140.409C181.882 129.864 181.982 126.7 181.982 100C181.982 73.3 181.882 70.1364 181.4 59.5909C180.955 49.8364 179.327 44.5455 177.955 41.0182C176.136 36.3545 173.982 33.0182 170.482 29.5182C167.254 26.2006 163.325 23.6474 158.982 22.0455C155.455 20.6727 150.164 19.0455 140.409 18.6V18.6ZM87.2273 130.827C94.3605 133.797 102.303 134.197 109.699 131.961C117.095 129.725 123.485 124.99 127.778 118.566C132.071 112.142 134.001 104.426 133.237 96.7373C132.473 89.0485 129.064 81.8634 123.591 76.4091C120.102 72.9225 115.884 70.2528 111.239 68.5922C106.595 66.9317 101.64 66.3215 96.7318 66.8056C91.8233 67.2897 87.0832 68.8562 82.8528 71.3921C78.6223 73.928 75.0068 77.3704 72.2664 81.4714C69.526 85.5723 67.729 90.2299 67.0047 95.1087C66.2804 99.9876 66.6468 104.966 68.0776 109.687C69.5084 114.407 71.968 118.751 75.2793 122.407C78.5905 126.062 82.6711 128.938 87.2273 130.827ZM63.6545 63.6545C68.4275 58.8816 74.0938 55.0955 80.33 52.5124C86.5661 49.9293 93.25 48.5998 100 48.5998C106.75 48.5998 113.434 49.9293 119.67 52.5124C125.906 55.0955 131.573 58.8816 136.345 63.6545C141.118 68.4275 144.905 74.0938 147.488 80.33C150.071 86.5661 151.4 93.25 151.4 100C151.4 106.75 150.071 113.434 147.488 119.67C144.905 125.906 141.118 131.573 136.345 136.345C126.706 145.985 113.632 151.4 100 151.4C86.3678 151.4 73.294 145.985 63.6545 136.345C54.0151 126.706 48.5998 113.632 48.5998 100C48.5998 86.3678 54.0151 73.294 63.6545 63.6545V63.6545ZM162.8 56.2545C163.983 55.1388 164.93 53.7971 165.585 52.3089C166.24 50.8206 166.589 49.2161 166.613 47.5903C166.637 45.9645 166.334 44.3504 165.723 42.8437C165.111 41.337 164.204 39.9683 163.054 38.8185C161.904 37.6688 160.536 36.7614 159.029 36.1502C157.522 35.5389 155.908 35.2361 154.282 35.2598C152.657 35.2835 151.052 35.6332 149.564 36.2881C148.076 36.9431 146.734 37.89 145.618 39.0727C143.448 41.373 142.26 44.4284 142.306 47.5903C142.352 50.7522 143.629 53.7716 145.865 56.0077C148.101 58.2437 151.121 59.5203 154.282 59.5664C157.444 59.6124 160.5 58.4245 162.8 56.2545V56.2545Z" fill="#1E3A3D"/>
</svg>
