<svg width="200" height="200" viewBox="0 0 200 200" fill="none" xmlns="http://www.w3.org/2000/svg">
<path d="M191.315 22.4623C192.614 19.5433 193.685 16.4828 194.514 13.321C194.897 11.8544 194.905 10.2812 194.536 8.80908C194.167 7.337 193.439 6.03528 192.447 5.0758C191.456 4.11632 190.248 3.5442 188.983 3.43498C187.718 3.32575 186.456 3.68456 185.362 4.46403C179.359 8.79169 172.859 12.016 166.076 14.0319C157.842 5.01527 147.149 0.0167107 136.057 0C130.031 0.00561698 124.068 1.48752 118.526 4.35686C112.983 7.22619 107.976 11.4239 103.802 16.6983C99.6294 21.9727 96.3771 28.2152 94.2404 35.0515C92.1038 41.8878 91.1269 49.1773 91.3682 56.4828C65.0167 52.4577 40.9536 36.2788 24.1709 11.3022C23.5279 10.356 22.7061 9.61208 21.7754 9.13363C20.8447 8.65519 19.8326 8.45636 18.8251 8.55405C17.8175 8.65174 16.8442 9.04306 15.988 9.69476C15.1317 10.3465 14.4178 11.2393 13.9067 12.2974C10.0638 20.3004 7.97505 29.3645 7.83967 38.6253C7.70429 47.886 9.52683 57.0344 13.1334 65.1976C12.2489 65.3787 11.3991 65.7545 10.626 66.3065C9.6786 67.0395 8.89862 68.0502 8.358 69.2453C7.81739 70.4404 7.53355 71.7814 7.53267 73.1447C7.53267 89.2806 13.4498 104.094 22.9875 114.16L22.5774 114.657C21.8573 115.646 21.3619 116.845 21.14 118.136C20.9181 119.427 20.9774 120.766 21.3119 122.022C23.3008 129.55 26.6215 136.459 31.0418 142.267C35.4621 148.075 40.8752 152.64 46.902 155.644C34.524 162.97 20.6717 165.828 6.99368 163.875C5.58769 163.702 4.17388 164.099 2.97376 165.004C1.77364 165.91 0.85502 167.273 0.361824 168.88C-0.111802 170.499 -0.12069 172.264 0.336592 173.89C0.793874 175.516 1.6905 176.906 2.88099 177.836C21.4761 192.317 43.1086 200.01 65.204 200C137.615 200 180.898 128.632 180.898 59.6389L180.887 57.3074C187.904 50.6598 194 42.6926 198.943 33.7077C199.691 32.3494 200.059 30.7348 199.992 29.1029C199.925 27.471 199.427 25.9086 198.572 24.647C197.716 23.3854 196.548 22.4918 195.241 22.0983C193.934 21.7048 192.557 21.8324 191.315 22.4623V22.4623ZM170.868 47.4126C170.018 48.1544 169.335 49.1429 168.88 50.2877C168.426 51.4326 168.215 52.6973 168.267 53.9665C168.338 55.843 168.373 57.7481 168.373 59.6247C168.373 121.154 129.788 184.802 65.2158 184.802C53.6991 184.809 42.2637 182.463 31.3886 177.865C44.4132 174.836 56.6486 168.059 67.067 158.103C68.0812 157.133 68.8237 155.807 69.1928 154.305C69.562 152.803 69.5399 151.2 69.1296 149.714C68.7193 148.228 67.9407 146.933 66.9004 146.004C65.8601 145.076 64.6088 144.56 63.3176 144.527C58.2655 144.409 53.3068 142.853 48.8414 139.984C44.376 137.114 40.5289 133.012 37.6104 128.007C40.5748 127.765 43.4806 127.168 46.3044 126.244C47.6711 125.8 48.8734 124.807 49.7153 123.428C50.5572 122.048 50.9889 120.363 50.9399 118.648C50.891 116.932 50.3643 115.287 49.4458 113.982C48.5273 112.676 47.2713 111.787 45.8826 111.459C40.1767 110.05 34.8936 106.786 30.5987 102.016C26.3037 97.2454 23.1585 91.148 21.4994 84.3759C24.6161 85.3284 27.8149 85.8828 31.0137 86.0108C33.7672 85.9966 36.3215 83.9494 37.1768 80.7364C38.0322 77.5235 37.0245 73.9835 34.6928 72.1069C29.1796 67.6501 24.9347 61.237 22.5377 53.7435C20.1407 46.25 19.7085 38.0415 21.3002 30.2388C41.6531 55.5774 69.1357 70.6661 98.2579 72.4908C100.32 72.505 102.124 71.6093 103.378 69.7754C104.632 67.9414 105.112 65.5104 104.667 63.1788C103.065 54.8052 103.781 46.0242 106.706 38.1946C109.632 30.3651 114.602 23.9236 120.849 19.867C127.095 15.8103 134.269 14.3648 141.261 15.754C148.253 17.1432 154.673 21.2897 159.526 27.5519C160.254 28.4936 161.167 29.1952 162.179 29.5907C163.192 29.9861 164.271 30.0624 165.315 29.8123C167.248 29.3432 169.158 28.803 171.044 28.1774C170.194 28.9499 169.31 29.6665 168.396 30.3241C167.181 31.2272 166.256 32.6055 165.773 34.232C165.29 35.8585 165.278 37.6361 165.739 39.2719C166.201 40.9077 167.107 42.304 168.31 43.2307C169.513 44.1575 170.94 44.5594 172.357 44.3702L174.489 44.0432C173.315 45.2169 172.107 46.3407 170.868 47.4126V47.4126Z" fill="#1E3A3D"/>
</svg>
