<svg width="200" height="200" viewBox="0 0 200 200" fill="none" xmlns="http://www.w3.org/2000/svg">
<path d="M186.627 38.7038C195.549 48.6308 200 60.2123 200 73.4483C200 121.42 170.568 135.483 142.91 139.619C146.478 145.41 147.371 152.028 147.371 158.646V192.554C147.371 196.69 144.694 199.172 141.125 199.172C140.184 199.184 139.25 199.022 138.378 198.693C137.506 198.365 136.714 197.878 136.049 197.261C135.384 196.644 134.858 195.91 134.504 195.101C134.15 194.293 133.975 193.427 133.988 192.554V158.646C134.458 155.179 134.058 151.658 132.82 148.358C131.582 145.058 129.539 142.067 126.85 139.619L131.311 128.865C158.969 125.556 187.519 117.283 187.519 72.621C187.519 61.8668 183.058 51.9398 175.029 43.6673L173.244 37.0584C176.637 29.1318 176.949 20.3575 174.127 12.2409C169.675 13.059 160.753 14.7226 145.596 24.6496L140.233 25.4678C119.161 20.5067 97.0868 20.5067 76.0151 25.4678L70.6522 24.6496C54.6124 15.5499 45.6905 13.0681 41.2198 13.0681C38.5432 21.3406 38.5432 30.4313 42.1022 37.8856L40.3276 44.4945C31.4057 52.767 26.9447 63.5213 26.9447 73.4483C26.9447 117.283 53.7104 126.383 83.1428 129.692L86.7116 140.446C81.3585 145.41 78.6819 152.028 79.5741 158.646V193.381C79.5873 194.254 79.4117 195.12 79.0577 195.928C78.7036 196.737 78.1784 197.471 77.513 198.088C76.8475 198.705 76.0555 199.192 75.1835 199.521C74.3116 199.849 73.3775 200.012 72.4366 199.999C71.4956 200.012 70.5616 199.849 69.6896 199.521C68.8177 199.192 68.0256 198.705 67.3602 198.088C66.6948 197.471 66.1695 196.737 65.8155 195.928C65.4615 195.12 65.2859 194.254 65.2991 193.381V174.364C35.8666 180.154 24.2682 166.091 15.3463 155.346C10.8853 150.383 7.31659 146.246 2.85564 145.419C1.97326 144.592 -0.713114 141.283 0.179075 137.974C1.07126 134.665 4.64002 132.183 8.21858 133.838C17.1405 135.492 22.4838 142.11 27.8271 147.901C35.8666 157.828 43.8963 166.918 67.9756 161.964V158.655C67.0932 152.037 68.8678 145.419 72.4366 139.628C45.6709 134.665 14.4541 120.602 14.4541 73.4574C14.4541 60.2214 18.915 48.6399 27.8369 38.7129C25.1604 27.1405 26.0526 14.7317 30.5135 4.80473L34.9744 1.49573C36.7588 0.668478 49.2495 -1.81327 75.1033 13.0681C96.4801 8.1053 118.847 8.1053 140.223 13.0681C165.214 -2.64961 178.597 -0.176953 180.382 0.659388L184.843 3.96839C189.304 15.5499 190.196 27.1314 186.627 38.7038V38.7038Z" fill="#1E3A3D"/>
</svg>
