<svg width="200" height="200" viewBox="0 0 200 200" fill="none" xmlns="http://www.w3.org/2000/svg">
<path d="M140.087 58.5377C131.084 58.5377 124.417 60.5453 119.199 63.0813C118.362 60.4514 115.613 58.526 112.373 59.1013H72.7462C68.8287 58.526 65.6548 61.332 66.8633 64.9715V194.116C65.6548 197.403 68.8287 200.221 72.7462 199.986H112.373C116.29 200.221 119.464 197.403 119.464 193.94L119.451 115.89C119.438 115.854 119.291 112.121 121.961 109.55C124.099 107.507 127.777 106.462 132.863 106.462C141.336 106.462 145.107 109.526 146.515 116.383V193.94C145.12 197.403 148.294 200.221 152.212 199.986H193.976C197.894 200.221 201.068 197.403 199.66 193.94V113.776C201.055 73.0137 168.214 58.5377 140.087 58.5377V58.5377ZM186.872 188.246H159.303V116.383C159.303 102.517 149.171 93.9234 132.877 93.9234C123.661 93.9234 116.489 96.3184 111.549 101.038C104.684 107.613 105.215 115.948 106.689 117.803V188.246H79.8375V71.0765H105.281V75.0213C105.271 76.1964 105.636 77.3503 106.334 78.3504C107.032 79.3504 108.035 80.1561 109.228 80.6747C110.421 81.1934 111.755 81.4041 113.077 81.2825C114.399 81.1609 115.655 80.7121 116.702 79.9875L118.561 78.7195C123.939 74.9743 129.504 71.0882 140.101 71.0882C151.07 71.0882 186.885 74.176 186.885 113.788V188.246H186.872ZM27.0109 0C12.1111 0 0 10.7073 0 23.88C0 37.0528 12.1111 47.76 27.0109 47.76C41.9107 47.76 54.0218 37.0528 54.0218 23.88C54.0218 10.7073 41.9107 0 27.0109 0ZM27.0109 35.2213C19.9461 35.2213 14.1827 30.1259 14.1827 23.88C14.1827 17.6341 19.9461 12.5388 27.0109 12.5388C34.0757 12.5388 39.8391 17.6341 39.8391 23.88C39.8391 30.1259 34.0757 35.2213 27.0109 35.2213ZM45.9743 58.526H6.56017C2.64266 58.526 -0.531182 61.332 0.451515 64.9715V194.116C-0.531182 197.403 2.64266 200.221 6.56017 199.986H45.9743C49.8918 200.221 53.0657 197.403 53.0657 193.94V64.7954C53.0657 63.1326 52.3185 61.538 50.9887 60.3623C49.6588 59.1865 47.8551 58.526 45.9743 58.526ZM40.2906 188.246H13.6515V71.0765H40.2906V188.246Z" fill="#1E3A3D"/>
</svg>
