<svg width="415" height="376" viewBox="0 0 415 376" fill="none" xmlns="http://www.w3.org/2000/svg">
<g clip-path="url(#clip0_340_928)">
<path d="M456.3 323.4H-43.7002V323.6H456.3V323.4Z" fill="#1E3851"/>
<path d="M156.8 332.9H130.8V333.1H156.8V332.9Z" fill="#1E3851"/>
<path d="M62.8998 330.2H8.7998V330.4H62.8998V330.2Z" fill="#1E3851"/>
<path d="M129.8 342.2H103.5V342.4H129.8V342.2Z" fill="#1E3851"/>
<path d="M253.4 340.5H214.6V340.7H253.4V340.5Z" fill="#1E3851"/>
<path d="M273 340.5H262.3V340.7H273V340.5Z" fill="#1E3851"/>
<path d="M406.3 336.3H351.7V336.5H406.3V336.3Z" fill="#1E3851"/>
<path d="M337.338 314.477H383.038V188.977H337.338V314.477Z" fill="#152C2F"/>
<path d="M138.051 323.423L374.251 323.423V314.523H138.051V323.423Z" fill="#193336"/>
<path d="M337.4 189.1H129.3V314.6H337.4V189.1Z" fill="#152D30"/>
<path d="M338.2 197.5H129.3V243.4H338.2V197.5Z" fill="#13282A"/>
<path d="M338.2 251.8H129.3V297.7H338.2V251.8Z" fill="#13282A"/>
<path d="M337.383 243.517H345.283V197.617H337.383V243.517Z" fill="#193336"/>
<path d="M337.383 297.821H345.283V251.921H337.383V297.821Z" fill="#193336"/>
<path d="M123.217 189.084L337.417 189.084V181.384L123.217 181.384V189.084Z" fill="#193336"/>
<path d="M389.4 181.3H337.4V189H389.4V181.3Z" fill="#193336"/>
<path d="M261 158L389 158V23L261 23V158Z" fill="#173034"/>
<path d="M260.752 157.712L387.752 157.712V22.7117L260.752 22.7117V157.712Z" fill="#152C2F"/>
<path d="M271.37 33.2818V147.082H377.07V33.2818H271.37Z" fill="#193336"/>
<path d="M336 102.5L356.2 93.0999V87.1999L336 77.8999V84.9999L348.3 90.2999L336 95.4999V102.5Z" fill="#13282B"/>
<path d="M322.8 75.0999H319.1L325.6 105.2H329.3L322.8 75.0999Z" fill="#13282B"/>
<path d="M312.6 95.4998L300.3 90.1998L312.6 84.8998V77.7998L292.4 87.1998V93.0998L312.6 102.5V95.4998Z" fill="#13282B"/>
<path d="M73.6367 323.42H80.6367L80.6367 94.2204H73.6367L73.6367 323.42Z" fill="#193336"/>
<path d="M72.0997 321.8L71.8997 320.8C71.9997 320.8 73.7997 320.4 75.1997 317.9C76.9997 314.7 78.0997 307.8 73.0997 293.3C65.2997 271 69.8997 253 79.2997 217.1C80.8997 210.9 82.7997 203.8 84.6997 196.1C91.8997 167.4 85.1997 149.7 79.8997 135.4C75.7997 124.3 72.4997 115.5 76.6997 105.4L77.5997 105.8C73.5997 115.6 76.7997 124.2 80.7997 135.1C86.1997 149.5 92.8997 167.5 85.5997 196.4C83.6997 204.1 81.7997 211.1 80.1997 217.4C70.8997 253.1 66.2997 271 73.9997 293C79.1997 307.9 77.9997 315.1 75.9997 318.5C74.3997 321.3 72.1997 321.8 72.0997 321.8Z" fill="#193336"/>
<path d="M64.2998 323.4H89.7998L82.6998 319.2H71.3998L64.2998 323.4Z" fill="#193336"/>
<path d="M26.5996 123.4H127.5L116.4 38.7H37.6996L26.5996 123.4Z" fill="#193336"/>
<path d="M176.2 137.4H230.1L223 181.3H183.3L176.2 137.4Z" fill="#193336"/>
<path d="M197.8 151.7C212.5 146.4 223.7 138.4 211.1 122.3C198.5 106.2 179 106.2 165.9 113.4C149.2 122.5 152.5 148.9 152.5 148.9C152.5 148.9 183.2 157 197.8 151.7Z" fill="#142B2F"/>
<path d="M212.1 137C200.9 129.4 192.9 120.5 205.9 111.2C218.9 101.9 235 106.6 244.7 115.3C257 126.4 249.9 145.8 249.9 145.8C249.9 145.8 223.3 144.6 212.1 137Z" fill="#193336"/>
<path d="M192.3 117.6C205.4 116.8 216.5 113.4 210.2 99.1C204 84.9 188.2 80.9 175.9 83.3C160.2 86.4 156.5 106.1 156.5 106.1C156.5 106.1 179.2 118.4 192.3 117.6Z" fill="#1E3A3D"/>
<path d="M208.8 109.2C197.9 105.7 189.3 100.4 197.6 89.6999C205.9 78.9999 220.1 79.0999 230 83.7999C242.6 89.7999 241.5 107.3 241.5 107.3C241.5 107.3 219.8 112.7 208.8 109.2Z" fill="#13282B"/>
<path d="M188.3 91C199.2 94.6 209.2 95.4 208.8 81.8C208.4 68.3 196.9 60 186.1 57.9C172.4 55.4 163 70.1 163 70.1C163 70.1 177.4 87.4 188.3 91Z" fill="#193336"/>
<path d="M215.999 85.2C208.199 85.7 201.399 84.6 203.999 75.7C206.599 66.8 215.599 63.3 222.999 63.8C232.499 64.4 236.199 75.7 236.199 75.7C236.199 75.7 223.799 84.6 215.999 85.2Z" fill="#142B2F"/>
<path d="M206.3 368.5C313.388 368.5 400.2 363.441 400.2 357.2C400.2 350.959 313.388 345.9 206.3 345.9C99.2119 345.9 12.3999 350.959 12.3999 357.2C12.3999 363.441 99.2119 368.5 206.3 368.5Z" fill="#152C2F"/>
<path d="M197.1 126.8H116.3C113.4 126.8 111.5 129.2 112.1 132.1L122.9 183.4C123.5 186.3 126.4 188.7 129.3 188.7H210.1C213 188.7 214.9 186.3 214.3 183.4L203.5 132.1C202.9 129.2 200 126.8 197.1 126.8Z" fill="#263238"/>
<path d="M130 185.8C128.1 185.8 126.1 184.1 125.7 182.2L114.9 130.8C114.7 130 114.9 129.3 115.3 128.8C115.7 128.3 116.3 128.1 117 128.1H197.8C199.7 128.1 201.7 129.8 202.1 131.7L212.9 183C213.1 183.8 212.9 184.5 212.5 185C212.1 185.5 211.5 185.7 210.8 185.7H130V185.8Z" fill="#193336"/>
<path opacity="0.4" d="M191 181.7L180.8 133C180.5 131.8 181.5 130.6 182.7 130.6H195.8C196.7 130.6 197.5 131.3 197.7 132.2L207.9 180.9C208.2 182.1 207.2 183.3 206 183.3H192.9C192 183.3 191.2 182.6 191 181.7Z" fill="#13282B"/>
<path d="M121.7 134.9L121.2 132.8H137.4L137.9 134.9H121.7Z" fill="#254E54"/>
<path d="M129.1 140.1L128.7 138H157.1L157.5 140.1H129.1Z" fill="#254448"/>
<path d="M130.6 145.3L130.2 143.2H162L162.5 145.3H130.6Z" fill="#254448"/>
<path d="M132.1 150.6L131.7 148.5H157.3L157.8 150.6H132.1Z" fill="#254448"/>
<path d="M126.6 159.1L126.1 157H136.4L136.8 159.1H126.6Z" fill="#254E54"/>
<path d="M134.1 164.3L133.6 162.2H146.1L146.5 164.3H134.1Z" fill="#213E41"/>
<path d="M149.5 164.3L149.1 162.2H161.6L162 164.3H149.5Z" fill="#213E41"/>
<path d="M135.6 169.5L135.1 167.4H177.3L177.8 169.5H135.6Z" fill="#213E41"/>
<path d="M137 174.8L136.6 172.7H168.8L169.2 174.8H137Z" fill="#213E41"/>
<path d="M234.9 188.4H128.5C125.6 188.4 123.7 190 124.3 192.1H241.2C240.6 190.1 237.8 188.4 234.9 188.4Z" fill="#263238"/>
<path d="M111.17 170.824H123.348L119.178 192.6H107L111.17 170.824Z" fill="#263238"/>
<path d="M126.724 165H109.449L114.281 192.6H131.556L126.724 165Z" fill="#263238"/>
<path d="M108.456 165H109.449L114.281 192.6H113.288L108.456 165Z" fill="#263238"/>
<path opacity="0.3" d="M108.456 165H109.449L114.281 192.6H113.288L108.456 165Z" fill="black"/>
<path d="M116.73 189.622L112.957 167.912H124.209L128.048 189.622H116.73Z" fill="#193336"/>
<path opacity="0.6" d="M127.518 189.622L123.679 167.912H124.209L128.048 189.622H127.518Z" fill="#1B2327"/>
<path d="M141.9 174H129L130.5 193.4H140.4L141.9 174Z" fill="#8E9C9E"/>
<path opacity="0.4" d="M141.9 174H129L130.5 193.4H140.4L141.9 174Z" fill="#8E9C9E"/>
<path d="M375.6 192.1H35.7998V204.3H375.6V192.1Z" fill="#1E3A3D"/>
<path opacity="0.3" d="M126.7 192.1H35.7998V204.3H126.7V192.1Z" fill="white"/>
<path d="M128.2 204.3H120.3L124.5 357.1H128.2H132L136.1 204.3H128.2Z" fill="#1E3A3D"/>
<path opacity="0.3" d="M124.5 357.1H128.2V207.6L120.4 209L124.5 357.1Z" fill="white"/>
<path d="M53.2998 204.3H45.2998L49.4998 357.1H53.2998H56.9998L61.1998 204.3H53.2998Z" fill="#1E3A3D"/>
<path opacity="0.3" d="M49.5 357.1H53.3V207.6L45.5 209L49.5 357.1Z" fill="white"/>
<path d="M358.2 204.3H350.3L354.4 357.1H358.2H362L366.1 204.3H358.2Z" fill="#1E3A3D"/>
<path opacity="0.3" d="M354.4 357.1H358.2V207.6L350.4 209L354.4 357.1Z" fill="white"/>
<path d="M283.2 204.3H275.3L279.4 357.1H283.2H287L291.1 204.3H283.2Z" fill="#1E3A3D"/>
<path opacity="0.3" d="M279.4 357.1H283.2V207.6L275.4 209L279.4 357.1Z" fill="white"/>
<path opacity="0.1" d="M93.4998 113.8L83.2998 65.2C82.9998 64 83.9998 62.8 85.1998 62.8H167.8C168.7 62.8 169.5 63.5001 169.7 64.4001L180 113C180.3 114.2 179.3 115.4 178.1 115.4H95.4998C94.4998 115.4 93.6998 114.8 93.4998 113.8Z" fill="#8E9C9E"/>
<path d="M122.9 64.4H105.6L105.2 62.5H122.5L122.9 64.4Z" fill="#254E54"/>
<path opacity="0.4" d="M120.1 67.4H113.1L112.7 65.5H119.7L120.1 67.4Z" fill="#254C51"/>
<path opacity="0.4" d="M131.7 67.4H120.9L120.6 65.5H131.3L131.7 67.4Z" fill="#254C51"/>
<path opacity="0.4" d="M136.3 70.4H113.7L113.4 68.5H135.9L136.3 70.4Z" fill="#254C51"/>
<path opacity="0.4" d="M133.5 73.3H114.4L114 71.5H133.1L133.5 73.3Z" fill="#254C51"/>
<path opacity="0.4" d="M146.1 104.9H134L134.4 106.8H146.5L146.1 104.9Z" fill="#254C51"/>
<path d="M131 100.9H113.2L112.8 99H130.6L131 100.9Z" fill="#254E54"/>
<path opacity="0.4" d="M138.1 107.9H121.6L122 109.8H138.5L138.1 107.9Z" fill="#254C51"/>
<path opacity="0.4" d="M133.1 104.9H121L121.3 106.8H133.5L133.1 104.9Z" fill="#254C51"/>
<path opacity="0.4" d="M144.6 102H120.3L120.7 103.8H145L144.6 102Z" fill="#254C51"/>
<path d="M122.3 50.5H102.7L102.3 48.7H121.9L122.3 50.5Z" fill="#254E54"/>
<path opacity="0.4" d="M132 57.5999H110.3L110.7 59.4999H132.4L132 57.5999Z" fill="#254C51"/>
<path opacity="0.4" d="M127.7 54.5999H109.7L110.1 56.4999H128L127.7 54.5999Z" fill="#254C51"/>
<path opacity="0.4" d="M128.8 51.5999H118.95H109.1L109.5 53.4999H129.2L128.8 51.5999Z" fill="#254C51"/>
<path d="M122.1 78.2H108.4L108 76.3H121.7L122.1 78.2Z" fill="#254E54"/>
<path opacity="0.4" d="M143.5 85.2H116.8L117.2 87.1H143.9L143.5 85.2Z" fill="#254C51"/>
<path opacity="0.4" d="M127.3 82.3H116.2L116.6 84.1H127.7L127.3 82.3Z" fill="#254C51"/>
<path opacity="0.4" d="M139.2 82.3H128.2L128.6 84.1H139.6L139.2 82.3Z" fill="#254C51"/>
<path opacity="0.4" d="M139.9 79.3H115.6L116 81.1H140.3L139.9 79.3Z" fill="#254C51"/>
<path opacity="0.4" d="M139.9 94.2H118.7L119.1 96H140.3L139.9 94.2Z" fill="#254C51"/>
<path opacity="0.4" d="M124.2 91.2H118.1L118.5 93H124.6L124.2 91.2Z" fill="#254C51"/>
<path opacity="0.4" d="M133.9 91.2H125.1L125.5 93H134.3L133.9 91.2Z" fill="#254C51"/>
<path opacity="0.4" d="M141.8 88.2H117.5L117.9 90.1H142.2L141.8 88.2Z" fill="#254C51"/>
<path opacity="0.4" d="M160.9 87.6998H152.2L151.8 85.7998H160.5L160.9 87.6998Z" fill="#254E54"/>
<path opacity="0.4" d="M175.4 87.6998H162L161.6 85.7998H175L175.4 87.6998Z" fill="#254E54"/>
<path opacity="0.4" d="M181.1 90.6998H152.8L152.5 88.7998H180.7L181.1 90.6998Z" fill="#254E54"/>
<path opacity="0.4" d="M177.4 93.6998H153.5L153.1 91.7998H177L177.4 93.6998Z" fill="#254E54"/>
<path opacity="0.4" d="M188.1 75.8999H161L161.4 77.6999H188.5L188.1 75.8999Z" fill="#254E54"/>
<path opacity="0.4" d="M182.8 72.8999H160.4L160.8 74.7999H183.2L182.8 72.8999Z" fill="#254E54"/>
<path d="M178.8 69.8999H154L154.4 71.7999H179.1L178.8 69.8999Z" fill="#254E54"/>
<path opacity="0.4" d="M189.3 105.6H155.9L156.3 107.4H189.7L189.3 105.6Z" fill="#254E54"/>
<path opacity="0.4" d="M169.1 102.6H155.3L155.7 104.5H169.5L169.1 102.6Z" fill="#254E54"/>
<path opacity="0.4" d="M184.1 102.6H170.3L170.7 104.5H184.5L184.1 102.6Z" fill="#254E54"/>
<path opacity="0.4" d="M185.1 99.5999H154.7L155.1 101.5H185.5L185.1 99.5999Z" fill="#254E54"/>
<path opacity="0.4" d="M184.3 114.5H157.8L158.2 116.3H184.7L184.3 114.5Z" fill="#254E54"/>
<path opacity="0.4" d="M164.9 111.5H157.2L157.6 113.4H165.3L164.9 111.5Z" fill="#254E54"/>
<path opacity="0.4" d="M177 111.5H166L166.3 113.4H177.3L177 111.5Z" fill="#254E54"/>
<path opacity="0.4" d="M187 108.5H156.6L157 110.4H187.4L187 108.5Z" fill="#254E54"/>
<path opacity="0.4" d="M105.9 116.8H85.2002L85.6002 118.7H106.3L105.9 116.8Z" fill="#254E54"/>
<path opacity="0.4" d="M99.8001 113.8H84.6001L85.0001 115.7H100.2L99.8001 113.8Z" fill="#254E54"/>
<path opacity="0.4" d="M116.1 113.8H100.9L101.3 115.7H116.5L116.1 113.8Z" fill="#254E54"/>
<path opacity="0.4" d="M114.4 110.8H84L84.3 112.7H114.8L114.4 110.8Z" fill="#254E54"/>
<path d="M220.1 96.9999C220.5 97.7999 220.3 98.5999 219.8 98.8999C219.3 99.0999 218.6 98.6999 218.2 97.8999C217.8 97.0999 218 96.2999 218.5 95.9999C219 95.6999 219.7 96.1999 220.1 96.9999Z" fill="#263238"/>
<path d="M220.4 98.5999C220.4 98.5999 220.7 104.1 219.7 107.2C221.7 107.9 223.9 106.1 223.9 106.1L220.4 98.5999Z" fill="#FFADA1"/>
<path d="M220.2 90.4C220.1 90.5 220 90.5 219.9 90.5C217.6 90.6 216.6 92.2 216.6 92.3C216.5 92.5 216.1 92.6 215.9 92.5C215.7 92.4 215.6 92 215.7 91.8C215.8 91.7 217 89.7 219.8 89.5C220.1 89.5 220.3 89.7 220.3 90C220.4 90.1 220.3 90.3 220.2 90.4Z" fill="#263238"/>
<path d="M249.6 95.8C252.7 106.5 256.1 114.8 260.4 119.5C260.4 119.5 260.5 127.9 246.1 131.9C230.3 136.3 236.4 126.2 236.4 126.2C244.4 121.7 243.6 115 237.6 112.5L249.6 95.8Z" fill="#E0958A"/>
<path d="M263.6 117.5C263.3 113.6 263 109.1 260.5 109C257.8 108.9 242.4 115.8 239.2 120.6C235.9 125.5 242.3 130.2 242.3 130.2L263.6 117.5Z" fill="#263238"/>
<path d="M232.1 178L218.8 177.6L219 188.7C219 188.7 230.6 187.5 231.1 184.5L232.1 178Z" fill="#FFADA1"/>
<path d="M211.8 183L210.4 188.7H219.1L218.8 177.6L211.8 183Z" fill="#FFADA1"/>
<path d="M285.5 131.7L285.2 134.6C285.1 135.5 285 136.4 284.9 137.3C284.7 139.1 284.4 140.9 284.1 142.7C283.5 146.3 282.7 149.9 281.8 153.5C280.9 157.1 279.8 160.7 278.5 164.4C277.8 166.2 277.1 168.1 276.2 169.9C275.3 171.8 274.4 173.6 273.2 175.5C272.9 176 272.6 176.5 272.3 176.9C272 177.4 271.6 177.9 271.3 178.4C270.9 178.9 270.6 179.4 270.1 179.9L269.4 180.6C269.2 180.8 269 181.1 268.7 181.4C266.4 183.7 264 185.1 261.8 186.1C257.3 188.1 253.3 188.8 249.4 189.2C247.4 189.4 245.5 189.5 243.6 189.6C241.7 189.7 239.8 189.6 238 189.5C236.1 189.4 234.3 189.2 232.5 189C230.6 188.8 228.9 188.5 226.9 188.1L227.2 177.7C233.6 176.4 240.3 175.1 246.1 173.2C247.5 172.7 248.9 172.2 250.2 171.6C251.4 171.1 252.6 170.5 253.4 169.9C254.2 169.3 254.8 168.7 254.9 168.5L255.2 168C255.3 167.9 255.4 167.6 255.6 167.4C255.7 167.2 255.9 166.9 256 166.7C256.1 166.4 256.3 166.2 256.4 165.9C257.4 163.7 258.5 160.9 259.3 158C260.1 155.1 260.9 152 261.5 148.8C262.2 145.7 262.7 142.4 263.3 139.2L264.1 134.3L264.8 129.6L285.5 131.7Z" fill="#2F5D62"/>
<path opacity="0.2" d="M285.5 131.7L285.2 134.6C285.1 135.5 285 136.4 284.9 137.3C284.7 139.1 284.4 140.9 284.1 142.7C283.5 146.3 282.7 149.9 281.8 153.5C280.9 157.1 279.8 160.7 278.5 164.4C277.8 166.2 277.1 168.1 276.2 169.9C275.3 171.8 274.4 173.6 273.2 175.5C272.9 176 272.6 176.5 272.3 176.9C272 177.4 271.6 177.9 271.3 178.4C270.9 178.9 270.6 179.4 270.1 179.9L269.4 180.6C269.2 180.8 269 181.1 268.7 181.4C266.4 183.7 264 185.1 261.8 186.1C257.3 188.1 253.3 188.8 249.4 189.2C247.4 189.4 245.5 189.5 243.6 189.6C241.7 189.7 239.8 189.6 238 189.5C236.1 189.4 234.3 189.2 232.5 189C230.6 188.8 228.9 188.5 226.9 188.1L227.2 177.7C233.6 176.4 240.3 175.1 246.1 173.2C247.5 172.7 248.9 172.2 250.2 171.6C251.4 171.1 252.6 170.5 253.4 169.9C254.2 169.3 254.8 168.7 254.9 168.5L255.2 168C255.3 167.9 255.4 167.6 255.6 167.4C255.7 167.2 255.9 166.9 256 166.7C256.1 166.4 256.3 166.2 256.4 165.9C257.4 163.7 258.5 160.9 259.3 158C260.1 155.1 260.9 152 261.5 148.8C262.2 145.7 262.7 142.4 263.3 139.2L264.1 134.3L264.8 129.6L285.5 131.7Z" fill="black"/>
<path d="M226.5 145C229.7 158.4 233.9 180.8 234.8 210.1H293.4C293.7 202.9 292.5 162.1 286.6 132.6C284.4 121.4 273.4 114.1 262.2 116.6C262.1 116.6 262 116.6 261.9 116.7C254.6 118.4 244.1 121 237.9 123.4C237.8 123.4 237.7 123.5 237.6 123.5C229.1 126.8 224.3 136 226.5 145Z" fill="#2F5D62"/>
<path opacity="0.2" d="M230.3 163.7C230.8 166.5 231.2 169.5 231.7 172.6C236.5 167.6 238 152.3 238 152.3L230.3 163.7Z" fill="black"/>
<path d="M181.6 178.7L168.4 177.5L168 188.6C168 188.6 174.8 190.8 180.3 185.1L181.6 178.7Z" fill="#FFADA2"/>
<path d="M162 180.8L157.8 188.4L167.9 188.6L168.4 177.5L162 180.8Z" fill="#FFADA1"/>
<path d="M248.4 139.9C247.5 141.7 246.7 143.2 245.7 144.8C244.8 146.4 243.9 148 242.9 149.5C241 152.6 239.1 155.7 237 158.7C232.9 164.8 228.5 170.7 223.3 176.3C220.7 179.2 217.9 181.9 214.6 184.6C214.2 184.9 213.7 185.3 213.3 185.6C212.9 185.9 212.5 186.2 211.8 186.6C211.2 187 210.6 187.3 210 187.7C209.4 188 208.8 188.3 208.2 188.6C205.8 189.6 203.5 190.3 201.3 190.7C196.9 191.5 192.7 191.4 188.8 191C186.8 190.7 184.9 190.4 183 190C182.1 189.8 181.1 189.5 180.2 189.2C179.2 188.9 178.4 188.6 177.3 188.2L179 177.9C185.3 177 192.1 176 196.7 173.8C197.9 173.3 198.9 172.7 199.6 172.1C200 171.8 200.3 171.5 200.5 171.3C200.6 171.2 200.9 170.9 201.1 170.7C201.3 170.5 201.6 170.3 201.8 170C203.8 168.1 205.8 165.7 207.8 163.3C211.7 158.3 215.5 152.8 219.1 147.1C220.9 144.3 222.7 141.4 224.4 138.5L227 134.2L229.5 129.9L248.4 139.9Z" fill="#2F5D62"/>
<path d="M232.4 348.6H221.4L215.9 323.3H226.9L232.4 348.6Z" fill="#FFADA1"/>
<path d="M220.8 346.3H233.1C233.5 346.3 233.9 346.6 234 347L236.2 356.7C236.4 357.7 235.6 358.7 234.6 358.6C230.3 358.5 228.2 358.3 222.8 358.3C219.5 358.3 215.2 358.6 210.6 358.6C206.1 358.6 205.4 354.1 207.3 353.6C215.7 351.8 216.3 349.2 219 346.8C219.5 346.5 220.1 346.3 220.8 346.3Z" fill="#13282A"/>
<g opacity="0.2">
<path d="M226.9 323.3H215.9L219 337.3L229.7 336.3L226.9 323.3Z" fill="black"/>
</g>
<path d="M246 82.9C249.9 93 252.8 98.7 250.1 106.1C246.1 117.2 231.9 118.3 225 109.5C218.8 101.6 213.4 86.4 221.2 78C229 69.8 242.1 72.8 246 82.9Z" fill="#FFADA1"/>
<path d="M226.8 98.0999C225.2 100.3 223.9 102 223.9 102C223.9 102 220.5 93.5999 221.8 89.7999C220.2 86.4999 216.8 91.2999 215.6 84.9999C214.4 78.6999 219.8 71.8999 221.8 70.4999C222.1 70.9999 222.1 72.7999 222.1 72.7999C222.1 72.7999 230.2 65.5999 241.7 66.5999C240.9 67.3999 240.6 69.4999 240.6 69.4999C240.6 69.4999 252.5 71.4999 255.2 78.1999C253.5 77.3999 252.2 77.0999 252.2 77.0999C252.2 77.0999 255.6 81.2999 254.6 87.7999C253.6 94.2999 253.1 101.5 253.3 104.3C253.4 107.1 245.6 112.6 240.9 106.8C236.1 101 226.8 98.0999 226.8 98.0999Z" fill="#263238"/>
<path d="M231.8 95.9C232.5 98.4 232.1 101 231.3 103C230 105.9 227.4 105.3 226.1 102.7C224.9 100.3 224.2 96 226.3 93.9C228.3 91.8 231 93 231.8 95.9Z" fill="#FFADA1"/>
<path d="M252.3 210.1C252.3 210.1 201.5 228.5 200 252.9C197.2 297.8 215.6 333.4 215.6 333.4L232.4 331.6C232.4 331.6 229.4 317.1 227.2 276.4C224.4 225.3 311.2 277.6 293.3 210L252.3 210.1Z" fill="#1E3A3D"/>
<path opacity="0.5" d="M252.3 210.1C252.3 210.1 201.5 228.5 200 252.9C197.2 297.8 215.6 333.4 215.6 333.4L232.4 331.6C232.4 331.6 229.4 317.1 227.2 276.4C224.4 225.3 311.2 277.6 293.3 210L252.3 210.1Z" fill="white"/>
<path d="M211 327.2C210.9 327.2 213.7 334.7 213.7 334.7L234.7 332.6L233.6 325.8L211 327.2Z" fill="#1E3A3D"/>
<path d="M185.1 349.8H174.1L170.9 324.5H181.9L185.1 349.8Z" fill="#FFADA1"/>
<path d="M174 346.3H186C186.4 346.3 186.8 346.6 186.9 347L189.1 356.7C189.3 357.7 188.6 358.7 187.5 358.6C183.2 358.5 177 358.3 171.5 358.3C165.2 358.3 163.9 358.7 156.5 358.7C152 358.7 150.8 354.2 152.6 353.8C161.2 351.9 163.9 351.7 171.3 347.1C172.2 346.6 173.1 346.3 174 346.3Z" fill="#13282A"/>
<path opacity="0.2" d="M170.9 324.5L172.7 338.3L183.5 337.6L181.9 324.5H170.9Z" fill="black"/>
<path d="M234.8 210.1C234.8 210.1 151.5 217.5 152.4 259.3C153.3 302.8 169.6 332.2 169.6 332.2H185.9C185.9 332.2 182.8 309.6 183.4 266.8C183.6 254 209.5 249.7 234.8 248.2C256.7 246.9 277.2 234.4 285.7 214.2L287.4 210.1H234.8V210.1Z" fill="#1E3A3D"/>
<path opacity="0.5" d="M234.8 210.1C234.8 210.1 151.5 217.5 152.4 259.3C153.3 302.8 169.6 332.2 169.6 332.2H185.9C185.9 332.2 182.8 309.6 183.4 266.8C183.6 254 209.5 249.7 234.8 248.2C256.7 246.9 277.2 234.4 285.7 214.2L287.4 210.1H234.8V210.1Z" fill="white"/>
<path d="M165.8 327.8C165.7 327.8 168.6 335.3 168.6 335.3L188.2 333.9L187.1 327.1L165.8 327.8Z" fill="#1E3A3D"/>
<path d="M256.6 163.1L246 203.8C243.3 214.2 241.9 224.9 241.9 235.7V254.6C241.9 259.4 245.4 263.3 249.8 263.3H304C308.3 263.3 311.9 259.4 311.9 254.6V235.7C311.9 224.9 313.3 214.1 316 203.8L325.3 167.8C326.7 162.3 323 156.8 317.7 156.8H264.1C260.7 156.8 257.6 159.4 256.6 163.1Z" fill="#152C2F"/>
<path d="M189.3 243.6L191.1 253.7C192 259 196.7 263.3 201.5 263.3H261.7C266.5 263.3 269.7 259 268.8 253.7L267 243.6C265.9 237.6 260.6 232.7 255.1 232.7H197.3C191.8 232.7 188.2 237.6 189.3 243.6Z" fill="#152C2F"/>
<path d="M267.5 273.5H236L232.9 263.3H270.6L267.5 273.5Z" fill="#1E3A3D"/>
<path d="M257.4 273.5H246.1V348.9H257.4V273.5Z" fill="#1E3A3D"/>
<path opacity="0.7" d="M257.4 348.9H246.1V275.3L257.4 276.4V348.9Z" fill="white"/>
<path opacity="0.7" d="M254.599 348.9H251.899V275.9L254.599 276.2V348.9Z" fill="#102D44"/>
<path d="M277.6 360.6H225.8C224.4 360.6 223.8 358.8 225 358L233.2 352C237.1 349.1 241.9 347.5 246.8 347.5H256.6C261.5 347.5 266.3 349.1 270.2 352L278.4 358C279.6 358.8 279 360.6 277.6 360.6Z" fill="#1E3A3D"/>
<path opacity="0.1" d="M107.124 161.482L105.011 151.417C104.949 151.169 105.156 150.92 105.405 150.92H122.511C122.698 150.92 122.863 151.065 122.905 151.252L125.038 161.317C125.1 161.565 124.893 161.814 124.644 161.814H107.538C107.331 161.814 107.165 161.689 107.124 161.482Z" fill="#8E9C9E"/>
<path d="M113.213 151.252H109.63L109.547 150.858H113.13L113.213 151.252Z" fill="#254E54"/>
<path opacity="0.4" d="M112.633 151.873H111.183L111.101 151.479H112.55L112.633 151.873Z" fill="#254E54"/>
<path opacity="0.4" d="M115.035 151.873H112.798L112.736 151.479H114.952L115.035 151.873Z" fill="#254E54"/>
<path opacity="0.4" d="M115.988 152.494H111.307L111.245 152.101H115.905L115.988 152.494Z" fill="#254E54"/>
<path opacity="0.4" d="M115.408 153.095H111.452L111.37 152.722H115.325L115.408 153.095Z" fill="#254E54"/>
<path opacity="0.4" d="M118.018 159.639H115.512L115.595 160.032H118.1L118.018 159.639Z" fill="#254E54"/>
<path d="M114.89 158.811H111.204L111.121 158.417H114.807L114.89 158.811Z" fill="#254E54"/>
<path opacity="0.4" d="M116.361 160.26H112.943L113.026 160.654H116.443L116.361 160.26Z" fill="#254E54"/>
<path opacity="0.4" d="M115.325 159.639H112.819L112.881 160.032H115.408L115.325 159.639Z" fill="#254E54"/>
<path opacity="0.4" d="M117.706 159.039H112.674L112.757 159.411H117.789L117.706 159.039Z" fill="#254E54"/>
<path d="M113.088 148.373H109.029L108.946 148H113.005L113.088 148.373Z" fill="#254E54"/>
<path opacity="0.4" d="M115.097 149.843H110.603L110.686 150.237H115.18L115.097 149.843Z" fill="#254E54"/>
<path opacity="0.4" d="M114.207 149.222H110.479L110.562 149.615H114.269L114.207 149.222Z" fill="#254E54"/>
<path opacity="0.4" d="M114.434 148.601H110.354L110.437 148.994H114.517L114.434 148.601Z" fill="#254E54"/>
<path d="M113.048 154.11H110.21L110.127 153.716H112.965L113.048 154.11Z" fill="#254E54"/>
<path opacity="0.4" d="M117.479 155.559H111.949L112.032 155.953H117.562L117.479 155.559Z" fill="#254E54"/>
<path opacity="0.4" d="M114.124 154.959H111.825L111.908 155.332H114.207L114.124 154.959Z" fill="#254E54"/>
<path opacity="0.4" d="M116.589 154.959H114.311L114.393 155.332H116.671L116.589 154.959Z" fill="#254E54"/>
<path opacity="0.4" d="M116.733 154.337H111.701L111.784 154.71H116.816L116.733 154.337Z" fill="#254E54"/>
<path opacity="0.4" d="M116.733 157.423H112.343L112.426 157.796H116.816L116.733 157.423Z" fill="#254E54"/>
<path opacity="0.4" d="M113.482 156.802H112.219L112.302 157.175H113.565L113.482 156.802Z" fill="#254E54"/>
<path opacity="0.4" d="M115.491 156.802H113.668L113.751 157.175H115.574L115.491 156.802Z" fill="#254E54"/>
<path opacity="0.4" d="M117.127 156.18H112.094L112.177 156.574H117.21L117.127 156.18Z" fill="#254E54"/>
<path opacity="0.4" d="M121.082 156.077H119.281L119.198 155.683H121L121.082 156.077Z" fill="#254E54"/>
<path opacity="0.4" d="M124.086 156.077H121.31L121.228 155.683H124.003L124.086 156.077Z" fill="#254E54"/>
<path opacity="0.4" d="M125.266 156.698H119.405L119.343 156.305H125.183L125.266 156.698Z" fill="#254E54"/>
<path opacity="0.4" d="M124.499 157.32H119.55L119.467 156.926H124.417L124.499 157.32Z" fill="#254E54"/>
<path opacity="0.4" d="M126.716 153.633H121.104L121.186 154.006H126.799L126.716 153.633Z" fill="#254E54"/>
<path opacity="0.4" d="M125.618 153.012H120.979L121.062 153.405H125.701L125.618 153.012Z" fill="#254E54"/>
<path d="M124.789 152.39H119.653L119.736 152.784H124.852L124.789 152.39Z" fill="#254E54"/>
<path opacity="0.4" d="M126.965 159.784H120.047L120.13 160.157H127.047L126.965 159.784Z" fill="#254E54"/>
<path opacity="0.4" d="M122.78 159.163H119.922L120.005 159.556H122.863L122.78 159.163Z" fill="#254E54"/>
<path opacity="0.4" d="M125.887 159.163H123.029L123.112 159.556H125.97L125.887 159.163Z" fill="#254E54"/>
<path opacity="0.4" d="M126.094 158.541H119.798L119.881 158.935H126.177L126.094 158.541Z" fill="#254E54"/>
<path opacity="0.4" d="M125.929 161.627H120.441L120.524 162H126.012L125.929 161.627Z" fill="#254E54"/>
<path opacity="0.4" d="M121.911 161.006H120.316L120.399 161.399H121.994L121.911 161.006Z" fill="#254E54"/>
<path opacity="0.4" d="M124.417 161.006H122.139L122.201 161.399H124.479L124.417 161.006Z" fill="#254E54"/>
<path opacity="0.4" d="M126.488 160.385H120.192L120.275 160.778H126.571L126.488 160.385Z" fill="#254E54"/>
<path d="M114.113 168.473L114 168H117.648L117.76 168.473H114.113Z" fill="#254E54"/>
<path d="M115.779 169.644L115.689 169.171H122.084L122.174 169.644H115.779Z" fill="#254448"/>
<path d="M116.117 170.815L116.027 170.342H123.188L123.3 170.815H116.117Z" fill="#254448"/>
<path d="M116.454 172.008L116.364 171.535H122.129L122.241 172.008H116.454Z" fill="#254448"/>
<path d="M115.113 174.473L115 174H118.648L118.76 174.473H115.113Z" fill="#254E54"/>
<path d="M116.779 175.644L116.689 175.171H123.084L123.174 175.644H116.779Z" fill="#254448"/>
<path d="M117.117 176.815L117.027 176.342H124.188L124.3 176.815H117.117Z" fill="#254448"/>
<path d="M117.454 178.008L117.364 177.535H123.129L123.241 178.008H117.454Z" fill="#254448"/>
<path d="M116.113 180.473L116 180H119.648L119.76 180.473H116.113Z" fill="#254E54"/>
<path d="M117.779 181.644L117.689 181.171H124.084L124.174 181.644H117.779Z" fill="#254448"/>
<path d="M118.117 182.815L118.027 182.342H125.188L125.3 182.815H118.117Z" fill="#254448"/>
<path d="M118.454 184.008L118.364 183.535H124.129L124.241 184.008H118.454Z" fill="#254448"/>
<path d="M132 169.5C132 169.224 132.224 169 132.5 169V169C132.776 169 133 169.224 133 169.5V172.5C133 172.776 132.776 173 132.5 173V173C132.224 173 132 172.776 132 172.5V169.5Z" fill="#646D6F"/>
<rect x="134" y="166" width="1" height="5" rx="0.5" fill="#9CAAAC"/>
<path d="M136 165.5C136 165.224 136.224 165 136.5 165V165C136.776 165 137 165.224 137 165.5V172.5C137 172.776 136.776 173 136.5 173V173C136.224 173 136 172.776 136 172.5V165.5Z" fill="#8E9C9E"/>
<path d="M138 168.5C138 168.224 138.224 168 138.5 168V168C138.776 168 139 168.224 139 168.5V172.5C139 172.776 138.776 173 138.5 173V173C138.224 173 138 172.776 138 172.5V168.5Z" fill="#7B888A"/>
</g>
<defs>
<clipPath id="clip0_340_928">
<rect width="414.7" height="376" fill="white"/>
</clipPath>
</defs>
</svg>
