<svg width="200" height="200" viewBox="0 0 200 200" fill="none" xmlns="http://www.w3.org/2000/svg">
<rect width="200" height="200" rx="100" fill="#1E3A3D"/>
<path d="M32.504 100.328C32.504 91.624 34.4667 83.816 38.392 76.904C42.3173 69.9067 47.6507 64.4453 54.392 60.52C61.2187 56.5947 68.7707 54.632 77.048 54.632C86.776 54.632 95.2667 56.9787 102.52 61.672C109.773 66.3653 115.064 73.0213 118.392 81.64H104.44C101.965 76.264 98.3813 72.1253 93.688 69.224C89.08 66.3227 83.5333 64.872 77.048 64.872C70.8187 64.872 65.2293 66.3227 60.28 69.224C55.3307 72.1253 51.448 76.264 48.632 81.64C45.816 86.9307 44.408 93.16 44.408 100.328C44.408 107.411 45.816 113.64 48.632 119.016C51.448 124.307 55.3307 128.403 60.28 131.304C65.2293 134.205 70.8187 135.656 77.048 135.656C83.5333 135.656 89.08 134.248 93.688 131.432C98.3813 128.531 101.965 124.392 104.44 119.016H118.392C115.064 127.549 109.773 134.163 102.52 138.856C95.2667 143.464 86.776 145.768 77.048 145.768C68.7707 145.768 61.2187 143.848 54.392 140.008C47.6507 136.083 42.3173 130.664 38.392 123.752C34.4667 116.84 32.504 109.032 32.504 100.328Z" fill="#F5F5F5"/>
<path d="M139.592 55.784V145H127.944V104.552H82.504V145H70.856V55.784H82.504V94.952H127.944V55.784H139.592Z" fill="#F5F5F5"/>
<mask id="mask0_344_1499" style="mask-type:alpha" maskUnits="userSpaceOnUse" x="128" y="52" width="45" height="93">
<rect width="45" height="93" transform="translate(128 52)" fill="white"/>
</mask>
<g mask="url(#mask0_344_1499)">
<path d="M153.081 125.005H113.865L106.641 145H94.257L126.765 55.603H140.31L172.689 145H160.305L153.081 125.005ZM149.727 115.459L133.473 70.051L117.219 115.459H149.727Z" fill="#F5F5F5"/>
</g>
</svg>
